<?xml version="1.0" encoding="utf-8"?>
<!-- Generator: Adobe Illustrator 25.3.1, SVG Export Plug-In . SVG Version: 6.00 Build 0)  -->
<svg version="1.1" id="图层_1" xmlns="http://www.w3.org/2000/svg" xmlns:xlink="http://www.w3.org/1999/xlink" x="0px" y="0px"
	 viewBox="0 0 368 467" style="enable-background:new 0 0 368 467;" xml:space="preserve">
<style type="text/css">
	.st0{fill:#009C7C;}
</style>
<g>
	<g id="XMLID_1_">
		<g>
			<path class="st0" d="M358.23,347.87l-2.43,6.09c-25.27-0.87-50.54-3.48-63.66-6.96c-11.73-2.79-41.71-14.04-84.63-36
				c2.07-0.15,4.33-0.27,6.8-0.36v-3.33h-13.94c-8.33-4.34-17.11-9.08-26.3-14.21c-96.7,0-160.84-60.87-160.84-139.12
				C12.26,80.51,76.88,7.91,183.78,7.91c81.64,0,159.87,55.65,159.87,138.68c0.49,71.73-53.94,125.64-119.05,142.16
				C255.7,305.27,297,327.44,358.23,347.87z M211.97,281.79c51.99-10.86,98.15-49.56,98.15-117.81
				c0-95.64-62.19-145.64-139.46-145.64c-63.16,0-123.9,40-123.9,123.47c0,84.77,54.9,133.9,120.5,141.29l32.56-7.83
				C203.71,276.58,207.11,278.75,211.97,281.79z"/>
			<path class="st0" d="M255.15,452.64v3.32h-56.31v-3.32c14.71-1.66,20.54-3.33,20.54-8.31c0-7.36-28.91-52.01-36.52-63.64
				c-11.93,16.86-26.39,39.89-37.29,56.99c-1.78,2.61-2.79,4.99-2.79,6.88c0,4.04,4.56,6.42,18.01,8.08v3.32H106v-3.32
				c14.2-0.71,17.25-4.99,27.39-19.47c14.21-21.61,23.85-38,32.47-50.11c6.34-9.97,6.85-12.58,6.85-15.19v-34.2
				c0-18.04-2.03-22.08-26.89-23.03v-3.33h54.55c2.42,1.27,4.79,2.5,7.13,3.69c-19.93,1.47-21.6,6.32-21.6,22.67v35.86
				c0.25,2.37,0.51,4.98,5.33,12.11c12.43,20.18,22.83,36.33,31.96,47.49C234.6,444.09,237.65,450.74,255.15,452.64z"/>
			<path class="st0" d="M247.74,79.82c-9.22,0-19,5.74-21.77,16.3c4.24,0,30.25-0.26,38.19-0.39c4.61,0,4.61-1.3,4.61-2.08
				C268.77,86.34,261.02,79.82,247.74,79.82z M215.64,107.21c0-19.17,22.14-31.04,37.08-31.04c15.87,0,27.3,9.13,27.3,18.39
				c0,2.61-0.18,3-3.13,3.39c-2.95,0.39-26.57,1.83-52.03,2.35c-0.18,19.83,16.61,26.87,29.34,26.87c6.27,0,12.91-0.91,22.32-7.17
				l2.03,1.95c-10.89,8.87-23.43,11.35-27.67,11.35C229.11,133.3,215.64,121.04,215.64,107.21z"/>
			<path class="st0" d="M214.31,307.31v3.33c-2.47,0.09-4.73,0.21-6.8,0.36c0,0,0,0-0.01,0c-2.34-1.19-4.71-2.42-7.13-3.69H214.31z"
				/>
			<path class="st0" d="M204.17,240.25v2.13h-46.56v-2.13c15.12-0.76,17.49-2.74,17.49-11.56v-31.63c0-9.73-1.66-10.49-15.13-12.01
				v-1.98c9.93-1.37,17.49-3.04,26.47-6.08v51.7C186.44,237.51,188.81,239.49,204.17,240.25z"/>
			<path class="st0" d="M181.01,143.53c5.43,0,8.98,3.19,8.98,6.39c0,3.19-4.02,6.08-8.98,6.08c-4.73,0-8.99-2.89-8.99-6.08
				C172.02,146.27,176.28,143.53,181.01,143.53z"/>
			<path class="st0" d="M111.61,74.14c18.7,0,32.96,12.82,32.96,28.46c0,16.06-11.45,25.83-23.28,29.24l-0.69-2.51
				c8.94-2.32,14.91-9.9,14.91-24.7c0-13.09-8.76-27.25-25.24-27.25c-2.99,0-5.72,0.47-8.17,1.33l-0.85-2.82
				C104.89,74.7,108.49,74.14,111.61,74.14z"/>
			<path class="st0" d="M120.6,129.33l0.69,2.51c-3.17,0.92-6.37,1.38-9.39,1.38c-19.6,0-32.96-13.49-32.96-28.19
				c0-16.39,11.36-25.58,22.31-29.14l0.85,2.82c-8.73,3.1-13.81,11.33-13.81,21.87c0,17.27,9.95,29.54,25.69,29.54
				C116.32,130.12,118.54,129.86,120.6,129.33z"/>
		</g>
		<g>
		</g>
	</g>
</g>
</svg>
